<svg width="32" height="33" viewBox="0 0 32 33" fill="none" xmlns="http://www.w3.org/2000/svg">
<path d="M13.7333 28.5C13.9565 28.9059 14.2846 29.2445 14.6833 29.4802C15.082 29.716 15.5368 29.8404 16 29.8404C16.4632 29.8404 16.918 29.716 17.3167 29.4802C17.7154 29.2445 18.0435 28.9059 18.2667 28.5M8 11.1667C8 9.04492 8.84286 7.01009 10.3431 5.5098C11.8434 4.00951 13.8783 3.16666 16 3.16666C18.1217 3.16666 20.1566 4.00951 21.6569 5.5098C23.1571 7.01009 24 9.04492 24 11.1667C24 20.5 28 23.1667 28 23.1667H4C4 23.1667 8 20.5 8 11.1667Z" stroke="#FFD100" stroke-width="2.5" stroke-linecap="round" stroke-linejoin="round"/>
</svg>
