<svg width="32" height="33" viewBox="0 0 32 33" fill="none" xmlns="http://www.w3.org/2000/svg">
<path d="M13.7333 28.5003C13.9565 28.9062 14.2846 29.2448 14.6833 29.4806C15.082 29.7164 15.5368 29.8408 16 29.8408C16.4632 29.8408 16.918 29.7164 17.3167 29.4806C17.7154 29.2448 18.0435 28.9062 18.2667 28.5003M8 11.167C8 9.04526 8.84286 7.01043 10.3431 5.51014C11.8434 4.00985 13.8783 3.16699 16 3.16699C18.1217 3.16699 20.1566 4.00985 21.6569 5.51014C23.1571 7.01043 24 9.04526 24 11.167C24 20.5003 28 23.167 28 23.167H4C4 23.167 8 20.5003 8 11.167Z" stroke="#002B49" stroke-width="2.5" stroke-linecap="round" stroke-linejoin="round"/>
</svg>
