<svg width="20" height="21" viewBox="0 0 20 21" fill="none" xmlns="http://www.w3.org/2000/svg">
<path d="M13 20.0005V12.0005C13 11.7352 12.8946 11.4809 12.7071 11.2933C12.5196 11.1058 12.2652 11.0005 12 11.0005H8C7.73478 11.0005 7.48043 11.1058 7.29289 11.2933C7.10536 11.4809 7 11.7352 7 12.0005V20.0005M1 9.00046C0.99993 8.70952 1.06333 8.42208 1.18579 8.15817C1.30824 7.89427 1.4868 7.66025 1.709 7.47246L8.709 1.47346C9.06999 1.16836 9.52736 1.00098 10 1.00098C10.4726 1.00098 10.93 1.16836 11.291 1.47346L18.291 7.47246C18.5132 7.66025 18.6918 7.89427 18.8142 8.15817C18.9367 8.42208 19.0001 8.70952 19 9.00046V18.0005C19 18.5309 18.7893 19.0396 18.4142 19.4147C18.0391 19.7897 17.5304 20.0005 17 20.0005H3C2.46957 20.0005 1.96086 19.7897 1.58579 19.4147C1.21071 19.0396 1 18.5309 1 18.0005V9.00046Z" stroke="#0082CA" stroke-width="2" stroke-linecap="round" stroke-linejoin="round"/>
</svg>
