<svg width="28" height="28" viewBox="0 0 28 28" fill="none" xmlns="http://www.w3.org/2000/svg">
<g clip-path="url(#clip0_529_11625)">
<path d="M14 4.8125C15.8604 4.8125 17.679 5.36417 19.2258 6.39774C20.7727 7.43131 21.9783 8.90037 22.6902 10.6191C23.4022 12.3379 23.5884 14.2292 23.2255 16.0538C22.8626 17.8785 21.9667 19.5545 20.6512 20.87C19.3357 22.1855 17.6597 23.0813 15.8351 23.4443C14.0104 23.8072 12.1191 23.6209 10.4004 22.909C8.68161 22.1971 7.21256 20.9914 6.17898 19.4446C5.14541 17.8977 4.59375 16.0791 4.59375 14.2187C4.59375 11.7241 5.58476 9.33154 7.34877 7.56753C9.11279 5.80351 11.5053 4.8125 14 4.8125ZM7.11812 19.25C7.74188 18.8843 8.4016 18.5838 9.08687 18.3531C8.75979 17.147 8.58055 15.9056 8.55312 14.6562H5.49062C5.57174 16.3138 6.13764 17.9111 7.11812 19.25ZM22.5203 14.6562H19.4469C19.4203 15.9063 19.2418 17.1484 18.9153 18.3553C19.6006 18.586 20.2603 18.8865 20.8841 19.2522C21.8681 17.9137 22.4371 16.3155 22.5203 14.6562ZM20.8819 9.1875C20.2581 9.55318 19.5984 9.85373 18.9131 10.0844C19.2402 11.2905 19.4194 12.5319 19.4469 13.7812H22.5094C22.4282 12.1237 21.8624 10.5264 20.8819 9.1875ZM13.5625 10.8544C12.3399 10.8258 11.1248 10.654 9.94218 10.3425C9.63108 11.4635 9.45844 12.6183 9.42812 13.7812H13.5625V10.8544ZM13.5625 9.97937V5.72906C12.1844 5.98719 10.9616 7.4375 10.2091 9.50906C11.305 9.79468 12.4303 9.9525 13.5625 9.97937ZM14.4375 5.72906V9.97937C15.5697 9.9525 16.695 9.79468 17.7909 9.50906C17.0384 7.4375 15.8156 5.98719 14.4375 5.72906ZM14.4375 10.8544V13.7812H18.5719C18.5416 12.6183 18.3689 11.4635 18.0578 10.3425C16.8752 10.654 15.6601 10.8258 14.4375 10.8544ZM18.5719 14.6562H14.4375V17.5831C15.6601 17.6117 16.8752 17.7835 18.0578 18.095C18.3689 16.974 18.5416 15.8192 18.5719 14.6562ZM14.4375 18.4581V22.7084C15.8156 22.4503 17.0384 21 17.7909 18.9284C16.695 18.6428 15.5697 18.485 14.4375 18.4581ZM13.5625 22.7084V18.4581C12.4303 18.485 11.305 18.6428 10.2091 18.9284C10.9616 21 12.1844 22.4503 13.5625 22.7084ZM13.5625 17.5831V14.6562H9.42812C9.45844 15.8192 9.63108 16.974 9.94218 18.095C11.1248 17.7835 12.3399 17.6117 13.5625 17.5831ZM8.55312 13.7812C8.57966 12.5312 8.75816 11.2891 9.08468 10.0822C8.39941 9.85154 7.73969 9.551 7.11593 9.18531C6.12802 10.5226 5.5552 12.1209 5.46875 13.7812H8.55312ZM7.67812 8.49844C8.21019 8.8009 8.76979 9.05213 9.34937 9.24875C9.72309 8.11597 10.3279 7.07313 11.1256 6.18625C9.80307 6.66155 8.61818 7.45574 7.67593 8.49844H7.67812ZM16.8766 6.18844C17.6742 7.07532 18.2791 8.11816 18.6528 9.25094C19.2324 9.05432 19.792 8.80308 20.3241 8.50062C19.3824 7.45822 18.1983 6.66406 16.8766 6.18844ZM20.3241 19.9391C19.792 19.6366 19.2324 19.3854 18.6528 19.1887C18.2791 20.3215 17.6742 21.3644 16.8766 22.2512C18.1983 21.7756 19.3824 20.9815 20.3241 19.9391ZM11.1234 22.2491C10.3258 21.3622 9.72091 20.3193 9.34718 19.1866C8.7676 19.3832 8.208 19.6344 7.67593 19.9369C8.61756 20.9793 9.80167 21.7734 11.1234 22.2491Z" fill="white"/>
<path d="M13.9991 1.72531e-07C16.4443 0.000413935 18.8467 0.641216 20.9672 1.85862C23.0877 3.07603 24.8524 4.82759 26.0857 6.93895C27.3189 9.05032 27.9776 11.4479 27.9963 13.8929C28.015 16.338 27.393 18.7453 26.1922 20.8753L27.9838 27.4378C28.0033 27.5033 28.0071 27.5725 27.9951 27.6398C27.983 27.7071 27.9553 27.7706 27.9143 27.8252C27.8732 27.8799 27.82 27.9242 27.7587 27.9545C27.6975 27.9849 27.63 28.0004 27.5616 28C27.5239 28.0003 27.4863 27.9951 27.4501 27.9847L20.8022 26.2347C18.9338 27.274 16.8521 27.8715 14.7168 27.9815C12.5816 28.0914 10.4495 27.7108 8.48418 26.8689C6.51885 26.027 4.77245 24.7462 3.37894 23.1246C1.98544 21.503 0.981848 19.5838 0.44516 17.5142C-0.0915298 15.4446 -0.147062 13.2795 0.282822 11.1851C0.712708 9.09073 1.61659 7.1226 2.92513 5.43172C4.23367 3.74084 5.91211 2.37214 7.83171 1.43059C9.7513 0.48904 11.861 -0.000335465 13.9991 1.72531e-07ZM13.9991 27.125C16.2897 27.121 18.5393 26.5177 20.5244 25.375C20.5911 25.3372 20.6665 25.3176 20.7432 25.3181C20.7808 25.3182 20.8182 25.3226 20.8547 25.3312L26.9404 26.9456L25.3019 20.93C25.2867 20.8741 25.2827 20.8157 25.2902 20.7583C25.2977 20.7008 25.3166 20.6454 25.3457 20.5953C26.7984 18.0959 27.3852 15.1868 27.0151 12.3196C26.645 9.45248 25.3386 6.78776 23.2988 4.73918C21.259 2.6906 18.5999 1.37278 15.7344 0.990351C12.8689 0.607917 9.95724 1.18226 7.45159 2.6242C4.94595 4.06614 2.98647 6.29501 1.8774 8.96473C0.76832 11.6345 0.571705 14.5957 1.31808 17.3886C2.06445 20.1815 3.71205 22.6499 6.00506 24.4104C8.29807 26.171 11.1082 27.1252 13.9991 27.125Z" fill="white"/>
</g>
<defs>
<clipPath id="clip0_529_11625">
<rect width="28" height="28" fill="white" transform="matrix(-1 0 0 1 28 0)"/>
</clipPath>
</defs>
</svg>
