<svg width="64" height="64" viewBox="0 0 64 64" fill="none" xmlns="http://www.w3.org/2000/svg">
<g clip-path="url(#clip0_361_8506)">
<path d="M62.9519 60.965L51.8166 34.9854C51.5239 34.3032 50.8528 33.8608 50.1108 33.8608H43.039C45.9011 28.8605 48.2549 23.3263 48.2549 18.6438C48.2549 -5.46965 14.8486 -5.76381 14.8486 18.6438C14.8486 23.3263 17.2024 28.8605 20.0646 33.8608H12.9927C12.2503 33.8608 11.5791 34.3032 11.2869 34.9854L0.151648 60.965C-0.372161 62.1869 0.525246 63.5518 1.8574 63.5518H61.2461C62.5754 63.5518 63.4766 62.1898 62.9519 60.965ZM48.8865 37.5722L54.3812 50.3911C54.2094 50.4806 36.3257 59.7671 36.1977 59.8403H32.3129C32.2147 59.7305 33.0495 60.5697 20.9538 48.4754L27.6723 45.0369C29.042 46.7851 30.0015 47.8957 30.1512 48.0681C30.8907 48.9193 32.2133 48.9179 32.9518 48.0681C33.2623 47.7109 37.0455 43.3273 40.7723 37.5722H48.8865ZM31.5518 4.16929C37.8086 4.16929 44.543 8.69918 44.543 18.6438C44.543 27.0055 35.1698 39.4493 31.5518 43.9402C27.9337 39.4489 18.5605 27.0055 18.5605 18.6438C18.5605 8.64526 25.085 4.16929 31.5518 4.16929ZM14.2165 37.5722C23.2069 37.5722 22.1853 37.5736 22.3293 37.5693C23.3745 39.1836 24.424 40.69 25.4004 42.0303L8.62598 50.6154L14.2165 37.5722ZM6.33673 55.9565L17.4821 50.2524L27.0715 59.8403H4.6719L6.33673 55.9565ZM44.2416 59.8403L55.8477 53.8117L58.4316 59.8403H44.2416Z" fill="#95D4E9"/>
<path d="M37.1206 17.1592C37.1206 14.0895 34.6229 11.5918 31.5532 11.5918C28.4831 11.5918 25.9854 14.0895 25.9854 17.1592C25.9854 20.2289 28.4831 22.7261 31.5532 22.7261C34.6229 22.7261 37.1206 20.2289 37.1206 17.1592ZM29.6973 17.1592C29.6973 16.1356 30.5297 15.3032 31.5532 15.3032C32.5763 15.3032 33.4092 16.1356 33.4092 17.1592C33.4092 18.1823 32.5763 19.0147 31.5532 19.0147C30.5297 19.0147 29.6973 18.1823 29.6973 17.1592Z" fill="#95D4E9"/>
</g>
<defs>
<clipPath id="clip0_361_8506">
<rect width="63.1035" height="63.1035" fill="white" transform="translate(0 0.448242)"/>
</clipPath>
</defs>
</svg>
