<svg width="100" height="100" viewBox="0 0 100 100" fill="none" xmlns="http://www.w3.org/2000/svg">
<rect width="100" height="100" fill="#002B49"/>
<g clip-path="url(#clip0_361_8505)">
<path d="M80.9519 78.965L69.8166 52.9854C69.5239 52.3032 68.8528 51.8608 68.1108 51.8608H61.039C63.9011 46.8605 66.2549 41.3263 66.2549 36.6438C66.2549 12.5303 32.8486 12.2362 32.8486 36.6438C32.8486 41.3263 35.2024 46.8605 38.0646 51.8608H30.9927C30.2503 51.8608 29.5791 52.3032 29.2869 52.9854L18.1516 78.965C17.6278 80.1869 18.5252 81.5518 19.8574 81.5518H79.2461C80.5754 81.5518 81.4766 80.1898 80.9519 78.965ZM66.8865 55.5722L72.3812 68.3911C72.2094 68.4806 54.3257 77.7671 54.1977 77.8403H50.3129C50.2147 77.7305 51.0495 78.5697 38.9538 66.4754L45.6723 63.0369C47.042 64.7851 48.0015 65.8957 48.1512 66.0681C48.8907 66.9193 50.2133 66.9179 50.9518 66.0681C51.2623 65.7109 55.0455 61.3273 58.7723 55.5722H66.8865ZM49.5518 22.1693C55.8086 22.1693 62.543 26.6992 62.543 36.6438C62.543 45.0055 53.1698 57.4493 49.5518 61.9402C45.9337 57.4489 36.5605 45.0055 36.5605 36.6438C36.5605 26.6453 43.085 22.1693 49.5518 22.1693ZM32.2165 55.5722C41.2069 55.5722 40.1853 55.5736 40.3293 55.5693C41.3745 57.1836 42.424 58.69 43.4004 60.0303L26.626 68.6154L32.2165 55.5722ZM24.3367 73.9565L35.4821 68.2524L45.0715 77.8403H22.6719L24.3367 73.9565ZM62.2416 77.8403L73.8477 71.8117L76.4316 77.8403H62.2416Z" fill="#95D4E9"/>
<path d="M55.1206 35.1592C55.1206 32.0895 52.6229 29.5918 49.5532 29.5918C46.4831 29.5918 43.9854 32.0895 43.9854 35.1592C43.9854 38.2289 46.4831 40.7261 49.5532 40.7261C52.6229 40.7261 55.1206 38.2289 55.1206 35.1592ZM47.6973 35.1592C47.6973 34.1356 48.5297 33.3032 49.5532 33.3032C50.5763 33.3032 51.4092 34.1356 51.4092 35.1592C51.4092 36.1823 50.5763 37.0147 49.5532 37.0147C48.5297 37.0147 47.6973 36.1823 47.6973 35.1592Z" fill="#95D4E9"/>
</g>
<defs>
<clipPath id="clip0_361_8505">
<rect width="63.1035" height="63.1035" fill="white" transform="translate(18 18.4482)"/>
</clipPath>
</defs>
</svg>
