<svg width="32" height="33" viewBox="0 0 32 33" fill="none" xmlns="http://www.w3.org/2000/svg">
<path d="M16.0009 12.5V17.8333M16.0009 23.1666H16.0142M28.9742 24.5L18.3075 5.83331C18.075 5.42291 17.7377 5.08156 17.3301 4.84407C16.9225 4.60657 16.4593 4.48145 15.9875 4.48145C15.5158 4.48145 15.0526 4.60657 14.645 4.84407C14.2374 5.08156 13.9001 5.42291 13.6675 5.83331L3.00088 24.5C2.76579 24.9071 2.64252 25.3692 2.64356 25.8393C2.6446 26.3095 2.76992 26.771 3.00681 27.1771C3.2437 27.5832 3.58375 27.9194 3.99248 28.1517C4.40121 28.3841 4.86409 28.5042 5.33422 28.5H26.6675C27.1354 28.4995 27.5949 28.3759 27.9999 28.1417C28.4049 27.9074 28.7412 27.5708 28.9749 27.1655C29.2086 26.7602 29.3316 26.3005 29.3315 25.8326C29.3314 25.3648 29.2081 24.9052 28.9742 24.5Z" stroke="white" stroke-width="2.5" stroke-linecap="round" stroke-linejoin="round"/>
</svg>
